<svg width="67" height="67" viewBox="0 0 67 67" fill="none" xmlns="http://www.w3.org/2000/svg">
<circle cx="33.5" cy="33.5" r="33" fill="#AE8B70" stroke="#F8EA8C"/>
<g filter="url(#filter0_bi_4_2)">
<path d="M47.0583 17.2212V17.9715C47.0583 20.993 49.5076 23.4424 52.5291 23.4424C55.5506 23.4424 58 25.8918 58 28.9133V42.4751C58 44.9054 56.0298 46.8756 53.5995 46.8756H50.2359C49.6632 46.8756 49.199 46.4114 49.199 45.8387C49.199 45.2661 49.6632 44.8018 50.2359 44.8018H52.2913C53.9991 44.8018 55.3835 43.4174 55.3835 41.7096V33.3352C55.3835 29.1314 51.9756 25.7235 47.7718 25.7235H44.8261C42.2492 25.7235 40.1602 23.6345 40.1602 21.0576C40.1602 18.4807 38.0712 16.3917 35.4943 16.3917H27.1966C20.037 16.3917 14.233 22.1957 14.233 29.3553V37.7301C14.233 45.4152 20.463 51.6452 28.1481 51.6452H36.6714C39.6492 51.6452 42.0631 49.2312 42.0631 46.2535V43.3593C42.0631 41.98 43.1813 40.8618 44.5607 40.8618C45.9401 40.8618 47.0583 41.98 47.0583 43.3593V48.4309C47.0583 52.6112 43.6694 56 39.4891 56H28.0291C17.5196 56 9 47.4804 9 36.9709V30.0291C9 19.5196 17.5196 11 28.0291 11H40.8371C44.2729 11 47.0583 13.7853 47.0583 17.2212Z" fill="#F9FEFB"/>
<path d="M47.0583 17.2212V17.9715C47.0583 20.993 49.5076 23.4424 52.5291 23.4424C55.5506 23.4424 58 25.8918 58 28.9133V42.4751C58 44.9054 56.0298 46.8756 53.5995 46.8756H50.2359C49.6632 46.8756 49.199 46.4114 49.199 45.8387C49.199 45.2661 49.6632 44.8018 50.2359 44.8018H52.2913C53.9991 44.8018 55.3835 43.4174 55.3835 41.7096V33.3352C55.3835 29.1314 51.9756 25.7235 47.7718 25.7235H44.8261C42.2492 25.7235 40.1602 23.6345 40.1602 21.0576C40.1602 18.4807 38.0712 16.3917 35.4943 16.3917H27.1966C20.037 16.3917 14.233 22.1957 14.233 29.3553V37.7301C14.233 45.4152 20.463 51.6452 28.1481 51.6452H36.6714C39.6492 51.6452 42.0631 49.2312 42.0631 46.2535V43.3593C42.0631 41.98 43.1813 40.8618 44.5607 40.8618C45.9401 40.8618 47.0583 41.98 47.0583 43.3593V48.4309C47.0583 52.6112 43.6694 56 39.4891 56H28.0291C17.5196 56 9 47.4804 9 36.9709V30.0291C9 19.5196 17.5196 11 28.0291 11H40.8371C44.2729 11 47.0583 13.7853 47.0583 17.2212Z" stroke="#F9FEFB"/>
</g>
<defs>
<filter id="filter0_bi_4_2" x="4.5" y="6.5" width="58" height="54" filterUnits="userSpaceOnUse" color-interpolation-filters="sRGB">
<feFlood flood-opacity="0" result="BackgroundImageFix"/>
<feGaussianBlur in="BackgroundImage" stdDeviation="2"/>
<feComposite in2="SourceAlpha" operator="in" result="effect1_backgroundBlur_4_2"/>
<feBlend mode="normal" in="SourceGraphic" in2="effect1_backgroundBlur_4_2" result="shape"/>
<feColorMatrix in="SourceAlpha" type="matrix" values="0 0 0 0 0 0 0 0 0 0 0 0 0 0 0 0 0 0 127 0" result="hardAlpha"/>
<feOffset dy="4"/>
<feGaussianBlur stdDeviation="2"/>
<feComposite in2="hardAlpha" operator="arithmetic" k2="-1" k3="1"/>
<feColorMatrix type="matrix" values="0 0 0 0 0 0 0 0 0 0 0 0 0 0 0 0 0 0 0.25 0"/>
<feBlend mode="normal" in2="shape" result="effect2_innerShadow_4_2"/>
</filter>
</defs>
</svg>
